<svg version="1.1" xmlns="http://www.w3.org/2000/svg" viewBox="0 0 1095 702.5" width="1095" height="702.5" filter="invert(93%) hue-rotate(180deg)">
  <!-- svg-source:excalidraw -->
  
  <defs>
    <style>
      @font-face {
        font-family: "Virgil";
        src: url("https://excalidraw.com/Virgil.woff2");
      }
      @font-face {
        font-family: "Cascadia";
        src: url("https://excalidraw.com/Cascadia.woff2");
      }
    </style>
  </defs>
  <rect x="0" y="0" width="1095" height="702.5" fill="#f1f3f5"></rect><g stroke-linecap="round" transform="translate(50.25000000000023 196.25000000000003) rotate(0 214 230)"><path d="M0.45 -0.22 C107.17 -2.15, 212.35 -1.65, 427.78 -0.62 M-0.13 -0.33 C98.62 -0.53, 196.96 -0.6, 428.15 -0.07 M427.13 -0.04 C426.81 146.67, 426.35 293.63, 428.63 460.76 M428.24 -0.31 C427.17 134.04, 426.78 267.1, 428.41 460.39 M428.9 459.38 C291.01 459.37, 153.5 458.65, 0.73 459.42 M427.72 460 C263.96 461.84, 100.41 461.4, -0.5 459.89 M-0.33 459.2 C0.05 324.85, 1.16 190.39, 0.92 0.32 M-0.46 460.42 C2.15 327.78, 2.07 196, -0.32 -0.09" stroke="#000000" stroke-width="1" fill="none"></path></g><g stroke-linecap="round" transform="translate(68.25000000000023 292.25) rotate(0 57 24.999999999999986)"><path d="M0.03 0.2 C26.4 -0.6, 50.68 1.64, 115.61 -0.2 M0.93 0.89 C44.05 -0.29, 87.53 0.16, 114.35 -0.55 M112.62 0.82 C114.24 12.65, 114.21 21.76, 114.52 49.22 M114.98 0.13 C112.99 15.02, 114.34 31.11, 113.8 49.67 M112.15 49.87 C87.6 48.24, 58.98 48.62, 0.23 51.79 M113.75 49.3 C73.56 51.42, 32.48 51.3, 0.59 50.83 M1.43 49.77 C1.9 32.39, -0.09 11.45, 0.31 0.5 M-0.75 49.45 C-0.57 35.04, 0.08 20.17, -0.11 0.12" stroke="#000000" stroke-width="1" fill="none"></path></g><g stroke-linecap="round" transform="translate(207.25000000000023 294.25) rotate(0 63.5 25.499999999999986)"><path d="M-0.54 -0.37 C31.52 2.77, 59.87 -0.65, 125.49 0.24 M0.01 0.21 C45.99 -1.19, 90.63 0.67, 127.99 -0.96 M128.35 -1.03 C127.47 10.77, 126.13 23.42, 126.9 52.19 M127.13 0.4 C126.53 12.9, 128.34 26.09, 126.69 51.95 M125.46 49.39 C98.59 51.82, 71.22 51.4, 0.1 50.4 M127.03 50.74 C101.14 50.13, 72.96 49.85, -0.44 50.82 M-0.64 51.91 C0.74 35.42, -0.17 15.76, 1.03 -0.85 M-0.99 51.98 C-1.2 35.91, 0.07 21.2, 0.66 -0.65" stroke="#000000" stroke-width="1" fill="none"></path></g><g stroke-linecap="round" transform="translate(355.2500000000002 299.25) rotate(0 50.5 23.999999999999986)"><path d="M-1.45 -0.44 C32.64 2.41, 64.16 -0.24, 101.68 -0.63 M-0.39 -0.58 C38.02 -0.08, 75.3 -0.68, 100.51 -0.21 M102.15 1.49 C99.64 14.17, 100.19 30.99, 102.73 48.87 M101.82 -0.31 C99.72 15.78, 100.5 31.44, 100.75 47.06 M99.97 47.08 C65.94 48.14, 26.94 46.39, 0.02 50 M101.01 47.8 C71.03 48.36, 43.55 49.22, -0.99 47.72 M0.92 46.25 C-1.44 34.25, -2.23 25.47, -1.68 1.45 M0.18 47.18 C-0.35 35.45, -0.4 24.65, 0.8 0.39" stroke="#c92a2a" stroke-width="1" fill="none"></path></g><g stroke-linecap="round" transform="translate(73.25000000000023 379.25000000000006) rotate(0 58.5 21)"><path d="M-0.23 -1.32 C40.15 -0.27, 80.12 -1.19, 115.05 0.56 M-0.02 0.73 C41.02 0.96, 83.38 -0.13, 116.24 -0.19 M116.3 -0.57 C115.28 9.65, 117.8 20.53, 116.65 42.23 M116.36 -0.33 C117.41 15.98, 116.04 31.76, 117.23 42.48 M117.41 40.76 C86.38 43.71, 51.66 41.09, -0.84 40.92 M116.15 41.69 C89.98 41.24, 63.44 41.48, 0.66 42.44 M-1.56 42.95 C0.22 29.47, 1.6 19.14, 1.26 -1.83 M-0.73 42.92 C0.06 28.65, -0.2 15.25, -0.82 0.74" stroke="#000000" stroke-width="1" fill="none"></path></g><g stroke-linecap="round" transform="translate(218.25000000000023 383.25000000000006) rotate(0 62 30.5)"><path d="M-0.62 -0.64 C24.23 0.73, 50.27 2.37, 124.88 -0.66 M0.48 0.26 C45.37 1.92, 91.84 1.6, 123.08 0.22 M125.85 0.79 C124.06 23.35, 124.3 44.55, 125.48 60.21 M123.3 0.37 C122.73 23.22, 124.16 46.65, 123.79 60.88 M124.82 59.32 C82.22 60.93, 44.58 61.38, -1.06 61.08 M123.19 60.55 C81.62 59.95, 41.9 61.51, -0.67 60.82 M-1.58 62.95 C0.48 48.89, -2 35.87, 1.74 0.23 M-0.59 61.33 C-0.73 37.07, -0.44 13.32, -0.8 0.01" stroke="#000000" stroke-width="1" fill="none"></path></g><g stroke-linecap="round" transform="translate(371.2500000000002 387.25000000000006) rotate(0 40 29.5)"><path d="M1.55 -1.19 C17.03 2.72, 38.16 1.11, 78.47 -0.23 M0.6 0.09 C30.38 -0.35, 61.57 -1.13, 79.93 -0.72 M81.16 -1.61 C79.06 13.99, 80.93 24.37, 78.93 60.46 M80.51 -0.64 C80.32 20.94, 80.43 39.95, 80.44 58.2 M81.56 60.19 C58.77 60.94, 36.91 59.99, -1.73 60.52 M80.92 58.58 C56.17 59.36, 31.36 58.15, 0.32 59.17 M0.61 60.44 C0.12 41.44, 0.15 20.13, 0.73 -1.55 M-0.79 58.18 C-0.05 45.41, -0.14 33.76, -0.78 0.03" stroke="#000000" stroke-width="1" fill="none"></path></g><g stroke-linecap="round" transform="translate(86.25000000000023 482.25000000000006) rotate(0 57.5 21.5)"><path d="M0.64 0.34 C45.89 -0.3, 88.86 0.92, 116.44 -0.06 M0.36 -0.78 C44.19 -0.13, 90 -0.73, 114.18 -0.16 M113.44 0.05 C113.66 8.3, 116.61 18.26, 115.71 43.7 M115.52 0.92 C114.53 9.73, 114.24 19.63, 114.93 44 M113.91 43.24 C74.34 41.3, 31.8 42.62, 1.66 44.98 M114.38 42.06 C77.15 41.45, 39.51 41.78, 0.18 43.19 M1.77 43.89 C1.57 33.12, -1.88 20.92, 1.77 1.39 M0.23 43.15 C0.34 31.35, -0.18 18.62, -0.11 0.55" stroke="#000000" stroke-width="1" fill="none"></path></g><g stroke-linecap="round" transform="translate(227.25000000000023 482.25000000000006) rotate(0 53 27.5)"><path d="M-1.63 1.62 C41.64 0.43, 82.34 1.62, 104.95 0.81 M0.85 -0.38 C30.39 0.75, 60.57 -0.77, 105.69 -0.06 M104.11 1.39 C104.1 15.86, 107.99 27.66, 105.6 53.16 M105.78 -0.99 C105.34 15.08, 106.27 30.05, 105.07 54.49 M106.53 55.16 C82.85 55.85, 63.32 54.77, -1.74 54.94 M106.84 54.03 C69.29 55.37, 31.68 55.96, 0.09 54.36 M-0.04 54.18 C0.49 40.37, -1.18 24.35, -1.39 0.68 M0.42 54.3 C0.7 39.75, 0.46 24.51, -0.1 0.13" stroke="#000000" stroke-width="1" fill="none"></path></g><g stroke-linecap="round" transform="translate(359.2500000000002 483.25000000000006) rotate(0 38.5 30.5)"><path d="M1.69 -1.95 C27.92 0.02, 54.05 1.22, 77.17 -1.27 M-0.02 -0.41 C20.57 -0.67, 40.24 -1.35, 76.3 0.34 M77.85 -1.39 C78.53 15.73, 78.05 31.47, 76.81 61.25 M77.01 0.03 C76.59 21.83, 77.28 43.1, 77.93 60.5 M77.45 61.76 C58.87 62.28, 42.93 63.12, 1.7 59.74 M76.93 60.25 C49.38 60.95, 22.19 60.34, 0.52 60.68 M0.2 62.64 C-0.92 42.77, 0.95 24.75, -1.4 1.66 M0.22 60 C0.18 46.79, -0.71 30.49, -0.41 0.91" stroke="#000000" stroke-width="1" fill="none"></path></g><g stroke-linecap="round" transform="translate(93.25000000000023 573.2500000000001) rotate(0 56.5 24.5)"><path d="M-0.14 -1.5 C39.41 1.69, 79.69 0.48, 114.04 -0.63 M0.1 0.82 C33.14 0.57, 67.63 0.62, 112.3 0.83 M113.44 -2 C114.09 13.1, 112.31 22, 112.18 50.83 M113.97 0.32 C113.45 12.81, 113 24.29, 113.55 48.5 M111.76 48.69 C74.06 49.96, 38.06 47.19, -0.35 48.76 M112.65 49.84 C69.23 48.95, 23.83 47.82, -0.32 49.79 M-1.92 49 C0.59 30.05, -0.48 10.87, 0.3 1.64 M-0.25 48.77 C0.32 36.39, 0.93 22.3, 0.46 -0.4" stroke="#000000" stroke-width="1" fill="none"></path></g><g stroke-linecap="round" transform="translate(259.2500000000002 583.2500000000001) rotate(0 43 28)"><path d="M-0.36 -1.84 C23.57 0.89, 49.79 1.17, 85.21 -0.27 M-0.61 0.4 C22.13 -0.7, 46.32 -0.84, 85.61 -0.4 M85.46 1.48 C85.96 17.17, 86.83 36.4, 87.59 55.3 M86.46 -0.28 C84.88 19.59, 86.41 39.57, 85.69 55.36 M86.1 54.69 C62.15 57.28, 37.82 53.97, -1.34 54.82 M86.4 55.81 C59.69 56.97, 30.68 55.73, -0.19 55.65 M-0.53 57.48 C-0.43 39.47, -1.61 24.14, 0.86 0.84 M0.73 55.01 C0.32 36.25, -0.11 16.82, 0.79 0.84" stroke="#000000" stroke-width="1" fill="none"></path></g><g stroke-linecap="round" transform="translate(370.2500000000002 575.2500000000001) rotate(0 42.5 27.5)"><path d="M1.79 1.45 C26.09 -0.87, 55.43 -0.54, 84.89 1.04 M-0.07 -0.02 C23.65 -0.07, 49.05 -0.21, 85.52 -0.18 M85.43 -0.08 C84.98 19.26, 86.97 39.22, 84.53 53.67 M84.08 -0.9 C85.43 15.56, 85.25 30.98, 85.53 55.78 M86.08 54.15 C57.97 53.99, 30.64 54.61, 1.28 54.97 M84.55 55.53 C54.37 54.26, 21.42 54.48, -0.62 55.63 M0.21 53.52 C-1.25 36.18, -0.16 18.41, 1.44 -0.89 M0.06 54.47 C1 37.62, 0.68 20.16, -0.72 0.76" stroke="#000000" stroke-width="1" fill="none"></path></g><g stroke-linecap="round" transform="translate(606.3654264708341 257.4403036697291) rotate(0 204.9999999999999 89.00000000000003)"><path d="M-0.01 -0.12 C141.99 3.11, 284.16 1.34, 410.47 0.3 M0.37 0.17 C82.26 -0.02, 164.05 0.03, 410.41 -0.27 M411.28 -0.29 C409.27 66.65, 409.13 136.14, 410.86 176.4 M409.99 0.57 C408.92 45.51, 409.19 92.38, 410.7 178.38 M410.7 177.17 C263.88 178.19, 117.68 179.5, 0.54 177.71 M410.08 178.29 C269.09 179.07, 128.69 179.53, -0.28 177.83 M1.9 176.83 C2.12 112.93, 0.35 43.93, -1.56 1.76 M-0.76 177.61 C0.38 109.31, 0.42 38.41, 0.97 0.8" stroke="#c92a2a" stroke-width="1" fill="none"></path></g><g transform="translate(638.147332803004 298.19030366972913) rotate(0 178.4999999999999 49.999999999999986)"><text x="0" y="18" font-family="Virgil, Segoe UI Emoji" font-size="20px" fill="#c92a2a" text-anchor="start" style="white-space: pre;" direction="ltr">Nombre: Warframe </text><text x="0" y="43" font-family="Virgil, Segoe UI Emoji" font-size="20px" fill="#c92a2a" text-anchor="start" style="white-space: pre;" direction="ltr">Categoría: Acción, Free to Play, Rol</text><text x="0" y="68" font-family="Virgil, Segoe UI Emoji" font-size="20px" fill="#c92a2a" text-anchor="start" style="white-space: pre;" direction="ltr">Número de jugadores: 35.781</text><text x="0" y="93" font-family="Virgil, Segoe UI Emoji" font-size="20px" fill="#c92a2a" text-anchor="start" style="white-space: pre;" direction="ltr">Precio: Free to Play</text></g><g stroke-linecap="round" transform="translate(78.25000000000023 219.25000000000003) rotate(0 188.5 23)"><path d="M0.67 -1 C143.6 -1.71, 287.68 -1.22, 376.83 -0.57 M0.01 0.29 C116.22 -1.29, 232.19 -0.25, 376.98 -0.13 M375.65 -1.86 C376.98 16.57, 377.33 28.37, 376.75 44.58 M377.08 0.07 C377.02 10.22, 378.07 21.3, 376.05 45.13 M377.4 46.38 C290.53 48.53, 204.46 48.34, -0.1 46.52 M377.47 45.88 C273.95 43.96, 170.53 44.23, 0.58 45.51 M-1.95 44.41 C0.78 29.92, -1.05 16.77, -1.03 1.01 M0.53 46.34 C1.14 33.15, -0.29 17.92, -0.47 0.93" stroke="#1864ab" stroke-width="1" fill="none"></path></g><g transform="translate(97.25000000000023 228.25000000000003) rotate(0 98.5 12.5)"><text x="0" y="18" font-family="Virgil, Segoe UI Emoji" font-size="20px" fill="#1864ab" text-anchor="start" style="white-space: pre;" direction="ltr">Barra de Búsqueda</text></g><g stroke-linecap="round" transform="translate(629.2500000000002 56.25000000000003) rotate(0 206.0000000000001 83)"><path d="M-0.23 0.65 C129.02 -0.98, 257.76 -0.16, 412.58 -0.12 M-0.18 0.4 C113.35 -1.84, 227.57 -1.69, 411.74 -0.07 M412.56 1.2 C414.15 44.61, 414.38 92.98, 412.66 167.09 M411.87 0.73 C412.41 49.26, 412 98.34, 411.99 166.68 M413.03 166.76 C288.95 166.2, 166.93 166.04, -0.31 166.53 M411.87 166.26 C318.08 163.41, 222.94 163.73, -0.15 165.98 M0.28 167.9 C1.45 127.06, 2.47 88.41, -0.87 1.85 M-0.68 166.2 C-1.28 116.71, 0.02 68.21, -0.26 0.24" stroke="#1864ab" stroke-width="1" fill="none"></path></g><g transform="translate(661.5000000000002 85.25000000000003) rotate(0 173.0000000000001 50)"><text x="0" y="18" font-family="Virgil, Segoe UI Emoji" font-size="20px" fill="#1864ab" text-anchor="start" style="white-space: pre;" direction="ltr">- Buscar por nombre</text><text x="0" y="43" font-family="Virgil, Segoe UI Emoji" font-size="20px" fill="#1864ab" text-anchor="start" style="white-space: pre;" direction="ltr">- Buscar por género</text><text x="0" y="68" font-family="Virgil, Segoe UI Emoji" font-size="20px" fill="#1864ab" text-anchor="start" style="white-space: pre;" direction="ltr">- Filtrar por precio</text><text x="0" y="93" font-family="Virgil, Segoe UI Emoji" font-size="20px" fill="#1864ab" text-anchor="start" style="white-space: pre;" direction="ltr">- Ordenar por número de jugadores</text></g><g stroke-linecap="round" transform="translate(10 10.000000000000028) rotate(0 537.5 341.25)"><path d="M-0.11 -0.65 C215.33 3.92, 430.63 3.44, 1074.81 -0.22 M0 -0.36 C384.27 -2.61, 768.85 -2.8, 1074.6 -0.31 M1075.18 -0.71 C1074.95 170.74, 1075.45 341.5, 1075.28 683.17 M1075.09 0.17 C1077.6 246.12, 1077.52 492.43, 1075.04 682.2 M1074.77 682.72 C745.28 683.63, 414.16 684.88, -0.56 682.88 M1075.23 682.35 C820.66 680.23, 566.94 680.15, -0.04 682.35 M-0.02 682.57 C0.65 420.56, 1.2 160.17, 0.66 -0.54 M-0.17 682.57 C-1.81 519.32, -2.11 356.24, 0.39 -0.05" stroke="#495057" stroke-width="1" fill="none"></path></g><g transform="translate(366.9109886486906 314.3480696630021) rotate(0 36.5 9)"><text x="0" y="13" font-family="Virgil, Segoe UI Emoji" font-size="14.41413293130804px" fill="#c92a2a" text-anchor="start" style="white-space: pre;" direction="ltr">Videojuego</text></g><g stroke-linecap="round" transform="translate(34.05564857862532 180.63790384813728) rotate(0 231.62423540897578 243.4686565378439)"><path d="M0.06 0.1 C156.44 -1.09, 311.86 -0.85, 463.59 -0.27 M-0.09 -0.38 C103.32 0.38, 206.54 0.63, 463.35 -0.34 M463.63 0.13 C464.76 143.58, 465.26 286.49, 462.53 487.73 M463.64 -0.2 C464.51 170.74, 464.78 341.81, 463.59 486.87 M462.64 487.12 C356.78 488.84, 250.34 487.84, 0.17 487.47 M463.48 486.8 C353.7 487.44, 243.52 488.19, 0.27 487.12 M0.3 486.12 C-0.83 375.1, 0.43 264.24, 0.62 0.55 M-0.42 486.66 C-1.61 383.85, -2.12 280.36, 0.04 -0.14" stroke="#5c940d" stroke-width="1" fill="none"></path></g><g stroke-linecap="round"><g transform="translate(439.075166880418 241.7518031063059) rotate(0 87.19596417328307 -43.89674267524761)"><path d="M1.17 0.1 C30.19 -14.73, 145.3 -73.35, 174.07 -87.89 M0.32 -0.89 C29.29 -15.11, 144.8 -72.78, 173.65 -86.98" stroke="#1864ab" stroke-width="1" fill="none"></path></g><g transform="translate(439.075166880418 241.7518031063059) rotate(0 87.19596417328307 -43.89674267524761)"><path d="M153.12 -63.58 C156.83 -70.59, 164.06 -78.29, 171.83 -88.44 M152.24 -65.44 C157.82 -70.58, 164.29 -77.44, 173.31 -87.73" stroke="#1864ab" stroke-width="1" fill="none"></path></g><g transform="translate(439.075166880418 241.7518031063059) rotate(0 87.19596417328307 -43.89674267524761)"><path d="M144 -81.97 C150.54 -83.69, 160.44 -86.01, 171.83 -88.44 M143.12 -83.82 C151.26 -83.92, 160.26 -85.68, 173.31 -87.73" stroke="#1864ab" stroke-width="1" fill="none"></path></g></g><g stroke-linecap="round"><g transform="translate(451.4685970352821 323.90798103491613) rotate(0 66.61398173497298 0.9402228967315125)"><path d="M0.22 -1.15 C22.06 -0.68, 110.01 2.4, 132.24 3.03 M-1.13 0.87 C20.97 0.96, 112.01 0.71, 134.36 1.23" stroke="#c92a2a" stroke-width="1" fill="none"></path></g><g transform="translate(451.4685970352821 323.90798103491613) rotate(0 66.61398173497298 0.9402228967315125)"><path d="M104.17 9.37 C118.31 7.61, 128.78 4.23, 132.42 0.04 M105.31 11.76 C113.55 8.91, 120.72 5.42, 135.12 0.32" stroke="#c92a2a" stroke-width="1" fill="none"></path></g><g transform="translate(451.4685970352821 323.90798103491613) rotate(0 66.61398173497298 0.9402228967315125)"><path d="M104.34 -11.15 C118.46 -4.78, 128.86 -0.02, 132.42 0.04 M105.48 -8.76 C113.52 -6.3, 120.64 -4.48, 135.12 0.32" stroke="#c92a2a" stroke-width="1" fill="none"></path></g></g><g stroke-linecap="round"><g transform="translate(272.77376690733513 179.20261528576415) rotate(0 -0.01926837553696714 -24.031608861597434)"><path d="M0.9 0.61 C0.78 -7.23, 0.35 -38.95, 0.05 -46.81 M-0.08 -0.11 C-0.43 -8.33, -1.15 -40.61, -0.88 -48.67" stroke="#5c940d" stroke-width="1" fill="none"></path></g><g transform="translate(272.77376690733513 179.20261528576415) rotate(0 -0.01926837553696714 -24.031608861597434)"><path d="M8.2 -26.41 C5.01 -36.02, 2.53 -41.58, 0.66 -50.61 M7.51 -26.73 C5.6 -31.74, 3.51 -38.19, -0.12 -48.33" stroke="#5c940d" stroke-width="1" fill="none"></path></g><g transform="translate(272.77376690733513 179.20261528576415) rotate(0 -0.01926837553696714 -24.031608861597434)"><path d="M-7.97 -26.42 C-5.26 -36.15, -1.84 -41.7, 0.66 -50.61 M-8.66 -26.74 C-6.61 -31.85, -4.74 -38.3, -0.12 -48.33" stroke="#5c940d" stroke-width="1" fill="none"></path></g></g><g transform="translate(200.19997000426292 73.76319577053903) rotate(0 67.93182585456759 21.77302110723319)"><text x="0" y="30.546042214466382" font-family="Virgil, Segoe UI Emoji" font-size="34.8368337715731px" fill="#5c940d" text-anchor="start" style="white-space: pre;" direction="ltr">Sistema</text></g></svg>